<?xml version="1.0" standalone="no"?>
<!DOCTYPE svg PUBLIC "-//W3C//DTD SVG 20010904//EN"
 "http://www.w3.org/TR/2001/REC-SVG-20010904/DTD/svg10.dtd">
<svg version="1.0" xmlns="http://www.w3.org/2000/svg"
 width="600.000000pt" height="600.000000pt" viewBox="0 0 600.000000 600.000000"
 preserveAspectRatio="xMidYMid meet">
<metadata>
Created by potrace 1.11, written by Peter Selinger 2001-2013
</metadata>
<g transform="translate(0.000000,600.000000) scale(0.100000,-0.100000)"
fill="#000000" stroke="none">
<path d="M0 3000 l0 -3000 3000 0 3000 0 0 3000 0 3000 -3000 0 -3000 0 0
-3000z m1780 -345 l0 -165 -370 0 -370 0 0 -315 0 -315 355 0 355 0 0 -160 0
-160 -355 0 -355 0 0 -430 0 -430 -170 0 -170 0 0 1063 c0 585 3 1067 7 1070
3 4 246 7 540 7 l533 0 0 -165z m1119 98 c47 -160 580 -2021 586 -2046 l7 -27
-174 0 -173 0 -44 163 c-24 89 -48 177 -53 194 l-9 33 -309 0 -309 0 -11 -37
c-5 -21 -29 -108 -53 -193 l-43 -155 -172 -3 c-120 -2 -172 1 -172 8 0 9 589
2071 605 2118 3 9 43 12 154 12 l150 0 20 -67z m1124 20 c8 -27 101 -364 208
-750 106 -387 196 -703 199 -703 3 0 98 337 211 748 l205 747 172 3 c122 2
172 -1 172 -9 0 -11 -567 -1991 -596 -2082 l-16 -48 -151 3 -151 3 -303 1050
c-166 578 -302 1058 -303 1068 0 15 15 17 170 17 l169 0 14 -47z"/>
<path d="M2621 1797 c-58 -210 -107 -388 -109 -394 -3 -10 45 -13 218 -13 173
0 221 3 218 13 -3 6 -51 181 -108 387 -56 206 -105 378 -109 382 -3 4 -53
-165 -110 -375z"/>
</g>
</svg>
